<svg xmlns="http://www.w3.org/2000/svg" width="88" height="88" viewBox="0 0 88 88" fill="none">
  <rect width="88" height="88" rx="8" fill="#E4C9EB"/>
  <path d="M59 35.5H56.5V30.5C56.5 23.6 50.9 18 44 18C37.1 18 31.5 23.6 31.5 30.5V35.5H29C26.25 35.5 24 37.75 24 40.5V65.5C24 68.25 26.25 70.5 29 70.5H59C61.75 70.5 64 68.25 64 65.5V40.5C64 37.75 61.75 35.5 59 35.5ZM44 58C41.25 58 39 55.75 39 53C39 50.25 41.25 48 44 48C46.75 48 49 50.25 49 53C49 55.75 46.75 58 44 58ZM51.75 35.5H36.25V30.5C36.25 26.225 39.725 22.75 44 22.75C48.275 22.75 51.75 26.225 51.75 30.5V35.5Z" fill="#7E587D"/>
</svg>