<svg xmlns="http://www.w3.org/2000/svg" width="50" height="48" viewBox="0 0 50 48" fill="none">
  <path d="M38.0714 7.14286L39.5714 10.4048L42.8333 11.9048L39.5714 13.4048L38.0714 16.6667L36.5714 13.4048L33.3095 11.9048L36.5714 10.4048L38.0714 7.14286ZM23.8095 9.83334V4.76191H28.5714C29.9286 4.76191 31.1905 5.16667 32.2619 5.83333L35.6667 2.42857C33.6905 0.928572 31.2619 0 28.5714 0C25.0476 0 15.4762 0 15.4762 0V4.76191H19.0476V9.85714C14.8333 10.7381 11.4524 13.8095 10.1429 17.8571H19.619L33.3333 22.9762V21.5C33.3333 15.7381 29.2381 10.9286 23.8095 9.83334ZM0 47.6191H9.52381V21.4286H0V47.6191ZM45.2381 35.7143H28.5714L23.5952 33.9762L24.381 31.7381L28.5714 33.3333H35.2857C36.8333 33.3333 38.0952 32.0714 38.0952 30.5238C38.0952 29.3571 37.3571 28.3095 36.2619 27.881L18.9762 21.4286H14.2857V42.9048L30.9524 47.6191L50 40.4762C49.9762 37.8571 47.881 35.7143 45.2381 35.7143ZM45.2381 28.5714C47.8571 28.5714 50 26.4286 50 23.8095C50 21.1905 45.2381 14.2857 45.2381 14.2857C45.2381 14.2857 40.4762 21.1905 40.4762 23.8095C40.4762 26.4286 42.619 28.5714 45.2381 28.5714Z" fill="#7E587D"/>
</svg>