<svg xmlns="http://www.w3.org/2000/svg" width="60" height="61" viewBox="0 0 60 61" fill="none">
  <path d="M54.8777 0.767094L53.5094 2.13548C56.4464 5.07258 58.0645 8.97838 58.0645 13.1329C58.0645 19.0042 56.0129 24.5581 52.2581 28.9864V20.8061C52.2581 11.6939 36.7065 6.72935 30.1316 5.03774C34.5194 3.32967 37.8939 2.41226 37.9916 2.38613L37.4923 0.516449C36.2777 0.839675 7.74194 8.61161 7.74194 22.7416V28.9874C3.9871 24.559 1.93548 19.0052 1.93548 13.1339C1.93548 8.97838 3.55355 5.07258 6.49064 2.13548L5.12226 0.767094C1.81935 4.07 0 8.46161 0 13.1329C0 20.2013 2.74935 26.8477 7.74194 31.851V34.8248C7.74194 42.1264 11.369 48.9035 17.4435 52.9526C18.3668 53.5681 19.3287 54.1061 20.3226 54.5697V60.4835H22.2581V55.3526C24.5787 56.1751 27.029 56.6126 29.5297 56.6126H30.4713C32.9719 56.6126 35.4223 56.1751 37.7429 55.3526V60.4835H39.6784V54.5706C40.6713 54.1071 41.6342 53.569 42.5574 52.9535C48.631 48.9035 52.2581 42.1264 52.2581 34.8248V31.851C57.2497 26.8477 60 20.2023 60 13.1329C60 8.46161 58.1806 4.07 54.8777 0.767094ZM50.3226 34.8248C50.3226 41.4771 47.0177 47.6522 41.4823 51.3422C38.2103 53.5245 34.4032 54.6771 30.4703 54.6771H29.5287C25.5958 54.6771 21.7887 53.5245 18.5168 51.3432C12.9823 47.6522 9.67742 41.4771 9.67742 34.8248V22.7416C9.67742 15.4129 19.0868 9.76903 27.0571 6.30258C29.0661 6.73032 50.3226 11.4868 50.3226 20.8061V34.8248Z" fill="#7E587D"/>
  <path d="M35.8064 12.0963H24.1935C17.2567 12.0963 11.6129 17.7402 11.6129 24.677V34.3544C11.6129 44.4934 19.8609 52.7415 30 52.7415C40.139 52.7415 48.3871 44.4934 48.3871 34.3544V24.677C48.3871 17.7402 42.7432 12.0963 35.8064 12.0963ZM46.4516 34.3544C46.4516 43.426 39.0716 50.806 30 50.806C20.9283 50.806 13.5483 43.426 13.5483 34.3544V24.677C13.5483 18.8076 18.3241 14.0318 24.1935 14.0318H35.8064C41.6758 14.0318 46.4516 18.8076 46.4516 24.677V34.3544Z" fill="#7E587D"/>
  <path d="M29.0321 26.6124C29.0321 23.6278 26.4357 21.7737 22.258 21.7737C18.0802 21.7737 15.4838 23.6278 15.4838 26.6124C15.4838 29.7372 17.2576 33.3866 22.258 33.3866C27.2583 33.3866 29.0321 29.7372 29.0321 26.6124ZM17.4192 26.6124C17.4192 23.9191 21.1228 23.7091 22.258 23.7091C23.3931 23.7091 27.0967 23.9191 27.0967 26.6124C27.0967 27.7475 26.7483 31.4511 22.258 31.4511C17.7676 31.4511 17.4192 27.7475 17.4192 26.6124Z" fill="#7E587D"/>
  <path d="M26.7199 27.378L25.547 25.8383C25.5373 25.847 24.4602 26.6125 22.2576 26.6125C20.055 26.6125 18.9779 25.847 18.9683 25.8383L17.7953 27.378C17.9492 27.498 19.3902 28.548 22.2576 28.548C25.125 28.548 26.566 27.498 26.7199 27.378Z" fill="#7E587D"/>
  <path d="M37.7417 21.7737C33.564 21.7737 30.9675 23.6278 30.9675 26.6124C30.9675 29.7372 32.7414 33.3866 37.7417 33.3866C42.742 33.3866 44.5159 29.7372 44.5159 26.6124C44.5159 23.6278 41.9195 21.7737 37.7417 21.7737ZM37.7417 31.4511C33.2514 31.4511 32.903 27.7475 32.903 26.6124C32.903 23.9191 36.6066 23.7091 37.7417 23.7091C38.8769 23.7091 42.5804 23.9191 42.5804 26.6124C42.5804 27.7475 42.232 31.4511 37.7417 31.4511Z" fill="#7E587D"/>
  <path d="M37.7424 26.6125C35.5398 26.6125 34.4627 25.847 34.4531 25.8383L33.2802 27.378C33.434 27.498 34.875 28.548 37.7424 28.548C40.6098 28.548 42.0508 27.498 42.2047 27.378L41.0318 25.8383C41.0221 25.847 39.945 26.6125 37.7424 26.6125Z" fill="#7E587D"/>
  <path d="M30.0003 36.2899C24.5461 36.2899 21.2906 38.0987 21.2906 41.1287C21.2906 44.4132 24.3429 47.9028 30.0003 47.9028C35.6577 47.9028 38.71 44.4132 38.71 41.1287C38.71 38.0987 35.4545 36.2899 30.0003 36.2899ZM30.0003 45.9674C25.6 45.9674 23.2261 43.4745 23.2261 41.1287C23.2261 38.9861 26.8745 38.2254 30.0003 38.2254C33.1252 38.2254 36.7745 38.9861 36.7745 41.1287C36.7745 43.4745 34.4007 45.9674 30.0003 45.9674Z" fill="#7E587D"/>
  <path d="M34.8389 41.1288H25.1615V43.0643H34.8389V41.1288Z" fill="#7E587D"/>
  <path d="M52.471 10.7656L53.9816 9.55591C53.1639 8.53397 52.1535 7.59139 50.8935 6.673L49.7535 8.23591C50.8568 9.04107 51.7713 9.89268 52.471 10.7656Z" fill="#7E587D"/>
  <path d="M48.8706 5.36102C45.3896 3.35393 41.9928 2.48393 41.8487 2.44812L41.3754 4.32554C41.4083 4.33425 44.6648 5.17038 47.9028 7.03812L48.8706 5.36102Z" fill="#7E587D"/>
  <path d="M3.97351 12.6286L5.7019 13.5015C5.70577 13.4938 6.08222 12.7593 6.88835 11.7218L5.35932 10.5344C4.42932 11.7335 3.99287 12.5928 3.97351 12.6286Z" fill="#7E587D"/>
  <path d="M12.1111 7.11952L11.1153 5.45984C9.68398 6.31919 8.35914 7.34306 7.17462 8.50242L8.52946 9.88435C9.60559 8.83048 10.8104 7.90048 12.1111 7.11952Z" fill="#7E587D"/>
</svg>