<svg xmlns="http://www.w3.org/2000/svg" width="56" height="62" viewBox="0 0 56 62" fill="none">
  <path d="M35.0759 46.2868C34.9549 45.9981 34.9908 45.5223 35.0513 45.1553C35.4674 42.6581 36.2411 40.7934 37.1427 39.3974C35.4202 37.4195 33.5337 37.1256 33.4418 37.1132L33.0861 37.0713C32.4604 38.7159 31.4967 40.9262 30.7878 42.9494C30.5792 43.5437 30.2927 44.1522 29.9537 44.3945C29.6147 44.6369 28.8334 44.7794 28.1727 44.9755C25.0864 45.8912 22.831 48.7885 22.8325 52.2221C22.8325 56.3897 26.1558 59.7699 30.255 59.7699C34.3538 59.7699 37.6771 56.3916 37.6771 52.2231C37.6781 50.1606 36.8639 48.2941 35.5453 46.9301C35.323 46.702 35.1975 46.5737 35.0759 46.2868ZM30.2551 56.3023C28.0392 56.3023 26.2427 54.4751 26.2427 52.222C26.2427 49.9698 28.0392 48.1425 30.2551 48.1425C32.4718 48.1416 34.268 49.968 34.2672 52.222C34.267 54.4751 32.4701 56.3023 30.2551 56.3023Z" fill="#7E587D" fill-opacity="0.8"/>
  <path d="M52.2353 56.7607C53.1718 55.4965 53.7266 53.9257 53.7282 52.2216C53.7274 48.788 51.4721 45.8907 48.3853 44.9749C47.7255 44.7789 46.9448 44.6363 46.6048 44.394C46.2666 44.1508 45.9802 43.5441 45.7716 42.9489C44.7491 40.0321 43.1948 36.7178 42.8942 35.2907C42.8942 35.2907 40.8886 8.15899 40.4864 4.69062C40.0851 1.22322 39.4841 1.99104e-06 38.2793 1.99104e-06C37.0763 -0.00180288 36.4735 1.22322 36.0722 4.69062C35.6727 8.15899 33.6644 35.2907 33.6644 35.2907C33.6644 35.2907 39.9844 36.0033 41.5072 45.1548C41.5685 45.5218 41.6036 45.9985 41.4817 46.2862C41.3617 46.574 41.2356 46.7013 41.013 46.9312C39.6961 48.2925 38.8813 50.1598 38.8813 52.2215C38.8822 56.3909 42.2046 59.7692 46.3043 59.7692C47.7062 59.7692 49.0178 59.3736 50.1377 58.6858C52.6768 61.013 54.7963 61.6063 54.7963 61.6063L56.0002 59.3613C54.1724 58.8044 52.5165 57.068 52.2353 56.7607ZM38.2793 34.0666C37.5038 34.0666 36.8756 33.427 36.8756 32.6385C36.8756 31.85 37.5047 31.2103 38.2793 31.2112C39.0546 31.2112 39.6829 31.85 39.6829 32.6385C39.6848 33.426 39.0548 34.0666 38.2793 34.0666ZM46.3043 56.3018C44.0884 56.3018 42.2914 54.4745 42.2922 52.2224C42.2931 49.9675 44.0884 48.142 46.3033 48.142C48.5201 48.141 50.3172 49.9674 50.3163 52.2224C50.3163 54.4755 48.5211 56.3009 46.3043 56.3018Z" fill="#7E587D" fill-opacity="0.8"/>
  <path d="M15.1107 0.545227H1.58594C0.711557 0.545227 0 1.26862 0 2.1577V5.37218C0 6.11868 0.59748 6.72632 1.33176 6.72632H11.0249C12.2835 6.72632 13.3079 7.7687 13.3079 9.0498C13.3079 10.3292 12.2835 11.3698 11.0249 11.3698H1.33188C0.597599 11.3698 0.000118497 11.9774 0.000118497 12.7239V14.1476C0.000118497 14.8942 0.597599 15.5019 1.33188 15.5019H11.025C12.2837 15.5019 13.308 16.5433 13.308 17.8235C13.308 19.1038 12.2837 20.1452 11.025 20.1452H1.33188C0.597599 20.1452 0.000118497 20.7528 0.000118497 21.4995V22.9249C0.000118497 23.6716 0.597599 24.2791 1.33188 24.2791H11.025C12.2837 24.2791 13.308 25.3206 13.308 26.6008C13.308 27.8801 12.2837 28.9207 11.025 28.9207H1.33188C0.597599 28.9207 0.000118497 29.5284 0.000118497 30.2749V31.7004C0.000118497 32.447 0.597599 33.0546 1.33188 33.0546H11.025C12.2837 33.0546 13.308 34.0952 13.308 35.3745C13.308 36.6547 12.2837 37.6962 11.025 37.6962H1.33188C0.597599 37.6962 0.000118497 38.3038 0.000118497 39.0504V40.4759C0.000118497 41.2224 0.597599 41.83 1.33188 41.83H11.025C12.2837 41.83 13.308 42.8716 13.308 44.1517C13.308 45.431 12.2837 46.4717 11.025 46.4717H1.33188C0.597599 46.4717 0.000118497 47.0793 0.000118497 47.8258V49.2513C0.000118497 49.9979 0.597599 50.6055 1.33188 50.6055H11.025C12.2837 50.6055 13.308 51.646 13.308 52.9254C13.308 54.2057 12.2837 55.2471 11.025 55.2471H1.33188C0.597599 55.2471 0.000118497 55.8548 0.000118497 56.6014V59.4487C0.000118497 60.3379 0.711556 61.0612 1.58606 61.0612H15.1107C17.388 61.0612 19.2403 59.1769 19.2403 56.8615V4.74493C19.2403 2.4294 17.388 0.545227 15.1107 0.545227Z" fill="#7E587D" fill-opacity="0.8"/>
</svg>