<svg xmlns="http://www.w3.org/2000/svg" width="21" height="21" viewBox="0 0 21 21" fill="none">
  <path fill-rule="evenodd" clip-rule="evenodd" d="M10.5 16.2275C13.6631 16.2275 16.2273 13.6633 16.2273 10.5002C16.2273 7.33714 13.6631 4.77295 10.5 4.77295C7.33689 4.77295 4.77271 7.33714 4.77271 10.5002C4.77271 13.6633 7.33689 16.2275 10.5 16.2275ZM10.5 14.3184C12.6087 14.3184 14.3182 12.6089 14.3182 10.5002C14.3182 8.3915 12.6087 6.68204 10.5 6.68204C8.39125 6.68204 6.6818 8.3915 6.6818 10.5002C6.6818 12.6089 8.39125 14.3184 10.5 14.3184Z" fill="#FAFAFA"/>
  <path d="M16.2273 3.81836C15.7001 3.81836 15.2727 4.24573 15.2727 4.7729C15.2727 5.30008 15.7001 5.72745 16.2273 5.72745C16.7544 5.72745 17.1818 5.30008 17.1818 4.7729C17.1818 4.24573 16.7544 3.81836 16.2273 3.81836Z" fill="#FAFAFA"/>
  <path fill-rule="evenodd" clip-rule="evenodd" d="M0.624235 3.12715C0 4.35228 0 5.95607 0 9.16364V11.8364C0 15.0439 0 16.6477 0.624235 17.8728C1.17333 18.9505 2.04949 19.8267 3.12715 20.3757C4.35228 21 5.95607 21 9.16364 21H11.8364C15.0439 21 16.6477 21 17.8728 20.3757C18.9505 19.8267 19.8267 18.9505 20.3757 17.8728C21 16.6477 21 15.0439 21 11.8364V9.16364C21 5.95607 21 4.35228 20.3757 3.12715C19.8267 2.04949 18.9505 1.17333 17.8728 0.624235C16.6477 0 15.0439 0 11.8364 0H9.16364C5.95607 0 4.35228 0 3.12715 0.624235C2.04949 1.17333 1.17333 2.04949 0.624235 3.12715ZM11.8364 1.90909H9.16364C7.52835 1.90909 6.41669 1.91058 5.55744 1.98078C4.72046 2.04916 4.29244 2.17311 3.99386 2.32524C3.27542 2.69131 2.69131 3.27542 2.32524 3.99386C2.17311 4.29244 2.04916 4.72046 1.98078 5.55744C1.91058 6.41669 1.90909 7.52835 1.90909 9.16364V11.8364C1.90909 13.4717 1.91058 14.5833 1.98078 15.4425C2.04916 16.2796 2.17311 16.7076 2.32524 17.0062C2.69131 17.7246 3.27542 18.3087 3.99386 18.6747C4.29244 18.8269 4.72046 18.9509 5.55744 19.0192C6.41669 19.0894 7.52835 19.0909 9.16364 19.0909H11.8364C13.4717 19.0909 14.5833 19.0894 15.4425 19.0192C16.2796 18.9509 16.7076 18.8269 17.0062 18.6747C17.7246 18.3087 18.3087 17.7246 18.6747 17.0062C18.8269 16.7076 18.9509 16.2796 19.0192 15.4425C19.0894 14.5833 19.0909 13.4717 19.0909 11.8364V9.16364C19.0909 7.52835 19.0894 6.41669 19.0192 5.55744C18.9509 4.72046 18.8269 4.29244 18.6747 3.99386C18.3087 3.27542 17.7246 2.69131 17.0062 2.32524C16.7076 2.17311 16.2796 2.04916 15.4425 1.98078C14.5833 1.91058 13.4717 1.90909 11.8364 1.90909Z" fill="#FAFAFA"/>
</svg>