<svg width="325" height="72" viewBox="0 0 325 72" fill="none" xmlns="http://www.w3.org/2000/svg">
<path d="M24.3551 41.937H26.3453C26.3931 42.3793 26.5665 42.7797 26.8653 43.1383C27.1761 43.485 27.5825 43.7599 28.0846 43.9631C28.5986 44.1544 29.1843 44.25 29.8417 44.25C30.4274 44.25 30.9116 44.1783 31.2941 44.0348C31.6766 43.8914 31.9575 43.6942 32.1368 43.4431C32.3281 43.1802 32.4237 42.8753 32.4237 42.5287C32.4237 42.182 32.3101 41.9131 32.083 41.7218C31.8678 41.5186 31.5331 41.3513 31.0789 41.2198C30.6247 41.0763 30.0449 40.9389 29.3397 40.8074C28.754 40.6998 28.1862 40.5564 27.6363 40.3771C27.0864 40.1978 26.5904 39.9706 26.1481 39.6957C25.7178 39.4208 25.3771 39.0861 25.1261 38.6916C24.875 38.2852 24.7495 37.8071 24.7495 37.2572C24.7495 36.6356 24.9229 36.0738 25.2695 35.5717C25.6281 35.0697 26.1541 34.6752 26.8474 34.3884C27.5407 34.1015 28.3834 33.958 29.3755 33.958C30.8936 33.958 32.0531 34.3107 32.854 35.0159C33.6549 35.7092 34.0434 36.6535 34.0195 37.8489H32.0651C32.0292 37.0958 31.7543 36.5519 31.2403 36.2172C30.7263 35.8825 30.0748 35.7152 29.2859 35.7152C28.5806 35.7152 27.9889 35.8407 27.5108 36.0917C27.0327 36.3428 26.7936 36.7492 26.7936 37.311C26.7936 37.5501 26.8474 37.7592 26.955 37.9385C27.0745 38.1059 27.2657 38.2613 27.5287 38.4047C27.7917 38.5362 28.1503 38.6677 28.6045 38.7992C29.0707 38.9187 29.6385 39.0502 30.3079 39.1937C30.8817 39.2893 31.4196 39.4208 31.9216 39.5881C32.4237 39.7555 32.86 39.9647 33.2305 40.2157C33.6131 40.4667 33.9119 40.7895 34.1271 41.1839C34.3422 41.5784 34.4498 42.0625 34.4498 42.6363C34.4498 43.2937 34.2824 43.8794 33.9478 44.3934C33.6131 44.8955 33.0991 45.2959 32.4057 45.5948C31.7244 45.8816 30.8398 46.0251 29.7521 46.0251C28.9273 46.0251 28.2041 45.9295 27.5825 45.7382C26.9729 45.535 26.4529 45.278 26.0226 44.9672C25.5923 44.6445 25.2456 44.2978 24.9826 43.9272C24.7316 43.5567 24.5523 43.1981 24.4447 42.8514C24.3491 42.4928 24.3192 42.188 24.3551 41.937ZM46.7649 43.0666V41.3274H53.686V43.0666H46.7649ZM44.0754 45.792L49.1497 34.1732H51.3372L56.4473 45.792H54.2419L49.7951 35.3028H50.6917L46.2629 45.792H44.0754ZM68.9189 34.1732V44.0348H76.1627V45.792H66.8748V34.1732H68.9189ZM92.8429 46.0072C91.4802 46.0072 90.2908 45.7621 89.2748 45.272C88.2707 44.7819 87.4877 44.0886 86.9259 43.1921C86.376 42.2956 86.1011 41.2258 86.1011 39.9826C86.1011 38.7394 86.376 37.6696 86.9259 36.7731C87.4877 35.8646 88.2707 35.1713 89.2748 34.6932C90.2908 34.2031 91.4802 33.958 92.8429 33.958C94.2175 33.958 95.4069 34.2031 96.411 34.6932C97.4151 35.1713 98.1921 35.8646 98.7419 36.7731C99.3037 37.6696 99.5847 38.7394 99.5847 39.9826C99.5847 41.2258 99.3037 42.2956 98.7419 43.1921C98.1921 44.0886 97.4151 44.7819 96.411 45.272C95.4069 45.7621 94.2175 46.0072 92.8429 46.0072ZM92.8429 44.2141C93.7513 44.2141 94.5522 44.0587 95.2455 43.7479C95.9388 43.4372 96.4827 42.971 96.8772 42.3494C97.2836 41.7158 97.4868 40.9269 97.4868 39.9826C97.4868 39.0502 97.2836 38.2732 96.8772 37.6517C96.4827 37.0181 95.9388 36.546 95.2455 36.2352C94.5522 35.9124 93.7513 35.7511 92.8429 35.7511C91.9464 35.7511 91.1455 35.9124 90.4402 36.2352C89.735 36.546 89.1791 37.0181 88.7727 37.6517C88.3663 38.2732 88.1631 39.0502 88.1631 39.9826C88.1631 40.9269 88.3663 41.7158 88.7727 42.3494C89.1791 42.971 89.735 43.4372 90.4402 43.7479C91.1455 44.0587 91.9464 44.2141 92.8429 44.2141ZM121.36 43.6762L120.75 43.9093V34.1732H122.776V45.792H120.75L112.036 36.3428L112.664 36.1097V45.792H110.62V34.1732H112.664L121.36 43.6762Z" fill="#4A335F"/>
<path d="M187.197 43.0666V41.3274H194.118V43.0666H187.197ZM184.508 45.792L189.582 34.1732H191.77L196.88 45.792H194.674L190.228 35.3028H191.124L186.695 45.792H184.508ZM218.047 43.6762L217.438 43.9093V34.1732H219.464V45.792H217.438L208.724 36.3428L209.351 36.1097V45.792H207.307V34.1732H209.351L218.047 43.6762ZM241.697 43.6762L241.088 43.9093V34.1732H243.114V45.792H241.088L232.373 36.3428L233.001 36.1097V45.792H230.957V34.1732H233.001L241.697 43.6762ZM254.947 34.1732H256.991V45.792H254.947V34.1732ZM268.047 41.937H270.038C270.086 42.3793 270.259 42.7797 270.558 43.1383C270.868 43.485 271.275 43.7599 271.777 43.9631C272.291 44.1544 272.877 44.25 273.534 44.25C274.12 44.25 274.604 44.1783 274.986 44.0348C275.369 43.8914 275.65 43.6942 275.829 43.4431C276.02 43.1802 276.116 42.8753 276.116 42.5287C276.116 42.182 276.003 41.9131 275.775 41.7218C275.56 41.5186 275.226 41.3513 274.771 41.2198C274.317 41.0763 273.737 40.9389 273.032 40.8074C272.446 40.6998 271.879 40.5564 271.329 40.3771C270.779 40.1978 270.283 39.9706 269.84 39.6957C269.41 39.4208 269.069 39.0861 268.818 38.6916C268.567 38.2852 268.442 37.8071 268.442 37.2572C268.442 36.6356 268.615 36.0738 268.962 35.5717C269.32 35.0697 269.846 34.6752 270.54 34.3884C271.233 34.1015 272.076 33.958 273.068 33.958C274.586 33.958 275.746 34.3107 276.546 35.0159C277.347 35.7092 277.736 36.6535 277.712 37.8489H275.757C275.722 37.0958 275.447 36.5519 274.933 36.2172C274.419 35.8825 273.767 35.7152 272.978 35.7152C272.273 35.7152 271.681 35.8407 271.203 36.0917C270.725 36.3428 270.486 36.7492 270.486 37.311C270.486 37.5501 270.54 37.7592 270.647 37.9385C270.767 38.1059 270.958 38.2613 271.221 38.4047C271.484 38.5362 271.843 38.6677 272.297 38.7992C272.763 38.9187 273.331 39.0502 274 39.1937C274.574 39.2893 275.112 39.4208 275.614 39.5881C276.116 39.7555 276.552 39.9647 276.923 40.2157C277.305 40.4667 277.604 40.7895 277.819 41.1839C278.035 41.5784 278.142 42.0625 278.142 42.6363C278.142 43.2937 277.975 43.8794 277.64 44.3934C277.305 44.8955 276.791 45.2959 276.098 45.5948C275.417 45.8816 274.532 46.0251 273.444 46.0251C272.62 46.0251 271.896 45.9295 271.275 45.7382C270.665 45.535 270.145 45.278 269.715 44.9672C269.285 44.6445 268.938 44.2978 268.675 43.9272C268.424 43.5567 268.245 43.1981 268.137 42.8514C268.041 42.4928 268.012 42.188 268.047 41.937ZM290.457 43.0666V41.3274H297.378V43.0666H290.457ZM287.768 45.792L292.842 34.1732H295.03L300.14 45.792H297.934L293.488 35.3028H294.384L289.955 45.792H287.768Z" fill="#E4C9EB"/>
<path fill-rule="evenodd" clip-rule="evenodd" d="M167.892 10.946C162.462 11.4413 163.993 15.3954 158.193 19.6391C154.573 22.2761 152.067 23.6342 149.283 25.5718C142.972 29.9802 139.398 35.0058 139.538 42.4213C141.022 30.4739 151.882 24.8709 156.336 21.9454C149.887 26.971 146.916 31.1322 145.014 34.5526C140.976 41.8019 140.791 47.1583 148.912 52.4721C152.254 54.6153 156.894 57.2096 157.683 63.1833C155.687 60.1347 151.185 56.7569 147.474 55.8089C155.131 61.0417 158.704 65.0368 157.544 72C154.99 62.4429 142.369 59.5179 136.475 51.3185C122.693 30.6795 148.772 26.971 156.29 17.0433C148.308 24.0475 137.032 25.7774 131.649 36.1169C134.711 25.5718 139.259 22.3586 142.785 20.0098C148.958 16.0132 155.454 14.6945 158.424 7.19803C153.505 14.655 148.819 14.9842 141.765 19.1849C136.15 22.5232 130.767 27.6724 129.375 39.3301C123.39 28.2067 130.211 12.6349 139.167 5.67321C148.448 -1.53664 159.956 -2.9784 169.469 7.89738C181.906 14.4063 186.361 29.1552 169.748 47.611C181.72 32.6976 179.029 19.5566 171.975 14.2412C180.282 24.9524 175.038 35.0463 170.166 43.9861C167.149 49.5055 168.031 50.7417 170.676 56.3452C165.896 52.6367 167.195 49.2174 162.091 45.5104C158.611 43.0381 154.295 41.5138 151.371 38.7123C149.793 37.1464 149.283 35.458 151.371 31.2963C152.485 29.1962 153.691 28.8255 155.036 29.6074C156.29 30.3909 160.466 33.6861 161.024 30.8846C161.163 30.1012 160.978 29.6484 161.951 29.2783C162.6 29.0311 163.25 29.1547 163.065 28.3302C162.972 27.9185 163.111 27.7539 163.668 27.6719C164.317 27.5483 164.271 27.3427 164.178 26.6829C163.9 25.076 165.338 25.2821 166.22 25.035C167.055 24.7879 167.055 24.2121 166.823 23.5517C166.684 23.1815 166.592 22.8108 166.453 22.4406C166.035 21.1219 165.988 20.2565 166.174 19.351L167.798 19.1849L166.36 18.6911C167.612 15.9717 168.54 14.737 167.891 10.9465L167.892 10.946ZM171.651 20.2565C172.486 23.5517 172.16 27.0136 171.232 30.1858C169.609 35.6642 166.963 37.5176 165.711 44.1922C166.081 37.1469 168.495 34.8407 170.119 29.8135C171.001 27.0956 171.558 23.9649 171.651 20.2565ZM146.916 3.11884C135.501 7.85585 129.283 19.2669 129.097 30.2678C131.464 19.5156 135.316 10.2872 146.916 3.11884Z" fill="#4A335F"/>
</svg>
