<svg xmlns="http://www.w3.org/2000/svg" width="54" height="72" viewBox="0 0 54 72" fill="none">
  <path fill-rule="evenodd" clip-rule="evenodd" d="M40.8919 10.946C35.4619 11.4413 36.9935 15.3954 31.1927 19.6391C27.5733 22.2761 25.0673 23.6342 22.283 25.5718C15.9722 29.9802 12.3984 35.0058 12.5382 42.4213C14.0225 30.4739 24.8819 24.8709 29.3365 21.9454C22.8865 26.971 19.9162 31.1322 18.0138 34.5526C13.9763 41.8019 13.7909 47.1583 21.9122 52.4721C25.2539 54.6153 29.8938 57.2096 30.6827 63.1833C28.6868 60.1347 24.1854 56.7569 20.4736 55.8089C28.1306 61.0417 31.7038 65.0368 30.5435 72C27.9902 62.4429 15.3687 59.5179 9.47492 51.3185C-4.30747 30.6795 21.7719 26.971 29.2897 17.0433C21.3081 24.0475 10.0317 25.7774 4.649 36.1169C7.71112 25.5718 12.2587 22.3586 15.7851 20.0098C21.9578 16.0132 28.454 14.6945 31.4237 7.19803C26.5054 14.655 21.8187 14.9842 14.7646 19.1849C9.14976 22.5232 3.76653 27.6724 2.37466 39.3301C-3.61038 28.2067 3.21093 12.6349 12.1668 5.67321C21.4479 -1.53664 32.9559 -2.9784 42.4691 7.89738C54.9064 14.4063 59.361 29.1552 42.7481 47.611C54.7205 32.6976 52.0286 19.5566 44.9751 14.2412C53.2818 24.9524 48.0383 35.0463 43.1656 43.9861C40.1492 49.5055 41.0311 50.7417 43.6762 56.3452C38.8959 52.6367 40.1948 49.2174 35.0911 45.5104C31.6108 43.0381 27.2949 41.5138 24.3708 38.7123C22.793 37.1464 22.283 35.458 24.3708 31.2963C25.4849 29.1962 26.6914 28.8255 28.0364 29.6074C29.2897 30.3909 33.4665 33.6861 34.0238 30.8846C34.163 30.1012 33.9776 29.6484 34.9507 29.2783C35.6005 29.0311 36.2502 29.1547 36.0648 28.3302C35.9718 27.9185 36.111 27.7539 36.6678 27.6719C37.3175 27.5483 37.2713 27.3427 37.1783 26.6829C36.8999 25.076 38.338 25.2821 39.2205 25.035C40.055 24.7879 40.055 24.2121 39.8234 23.5517C39.6842 23.1815 39.5918 22.8108 39.4527 22.4406C39.0345 21.1219 38.9883 20.2565 39.1743 19.351L40.7977 19.1849L39.3597 18.6911C40.6124 15.9717 41.5405 14.737 40.8913 10.9465L40.8919 10.946ZM44.6505 20.2565C45.4856 23.5517 45.1605 27.0136 44.2324 30.1858C42.6089 35.6642 39.9632 37.5176 38.7105 44.1922C39.0813 37.1469 41.4948 34.8407 43.1189 29.8135C44.0008 27.0956 44.5575 23.9649 44.6505 20.2565ZM19.9162 3.11884C8.50119 7.85585 2.28283 19.2669 2.09744 30.2678C4.46419 19.5156 8.3158 10.2872 19.9162 3.11884Z" fill="#4A335F"/>
</svg>