<svg xmlns="http://www.w3.org/2000/svg" width="21" height="21" viewBox="0 0 21 21" fill="none">
  <path d="M4.78595 6.46033C4.89502 5.62672 6.01614 4.49377 6.90588 4.61948L6.90445 4.61811C7.77034 4.77711 8.45578 6.21726 8.84229 6.86482C9.11614 7.33467 8.93831 7.81071 8.68288 8.01158C8.33829 8.27996 7.79944 8.65028 7.91249 9.0221C8.11349 9.6831 10.4999 11.9891 11.6736 12.6447C12.1178 12.8928 12.44 12.2384 12.7151 11.9031C12.9149 11.6452 13.408 11.491 13.8931 11.7456C14.6176 12.1533 15.3001 12.6271 15.9312 13.1606C16.2464 13.4152 16.3204 13.7914 16.102 14.1891C15.7173 14.8894 14.6047 15.813 13.797 15.6253C12.3864 15.2976 6.68167 13.1606 4.84926 6.96939C4.74621 6.6765 4.77216 6.56577 4.78595 6.46033Z" fill="#FAFAFA"/>
  <path fill-rule="evenodd" clip-rule="evenodd" d="M10.5 20.293C9.33202 20.293 8.68579 20.1718 7.63636 19.8317L5.6265 20.8029C4.35714 21.4162 2.86364 20.5242 2.86364 19.1528V17.0645C0.80807 15.2123 0 13.0767 0 10.1465C0 4.54273 4.70101 0 10.5 0C16.299 0 21 4.54273 21 10.1465C21 15.7502 16.299 20.293 10.5 20.293ZM4.77273 16.2623L4.16559 15.7152C2.56856 14.2763 1.90909 12.6675 1.90909 10.1465C1.90909 5.5616 5.75537 1.84481 10.5 1.84481C15.2447 1.84481 19.0909 5.5616 19.0909 10.1465C19.0909 14.7314 15.2447 18.4481 10.5 18.4481C9.5591 18.4481 9.11782 18.366 8.24341 18.0827L7.49172 17.8391L4.77273 19.1528V16.2623Z" fill="#FAFAFA"/>
</svg>